<svg xmlns="http://www.w3.org/2000/svg" xmlns:xlink="http://www.w3.org/1999/xlink" width="500" zoomAndPan="magnify" viewBox="0 0 375 374.999991" height="500" preserveAspectRatio="xMidYMid meet" version="1.0"><defs><clipPath id="f8efcd9bd5"><path d="M 0 42.1875 L 375 42.1875 L 375 333.1875 L 0 333.1875 Z M 0 42.1875 " clip-rule="nonzero"/></clipPath></defs><path fill="#f589b6" d="M 362.707031 127.414062 L 362.707031 115.484375 L 350.621094 115.484375 L 350.621094 103.558594 L 338.53125 103.558594 L 338.53125 91.613281 L 326.445312 91.613281 L 326.445312 79.683594 L 314.363281 79.683594 L 314.363281 67.761719 L 302.269531 67.761719 L 302.269531 55.816406 L 290.1875 55.816406 L 290.1875 43.890625 L 84.703125 43.890625 L 84.703125 55.816406 L 72.621094 55.816406 L 72.621094 67.761719 L 60.527344 67.761719 L 60.527344 79.683594 L 48.445312 79.683594 L 48.445312 91.613281 L 36.359375 91.613281 L 36.359375 103.558594 L 24.269531 103.558594 L 24.269531 115.484375 L 12.183594 115.484375 L 12.183594 127.414062 L 0.0859375 127.414062 L 0.0859375 151.28125 L 12.183594 151.28125 L 12.183594 163.222656 L 24.269531 163.222656 L 24.269531 175.144531 L 36.359375 175.144531 L 36.359375 187.074219 L 48.445312 187.074219 L 48.445312 199.019531 L 60.527344 199.019531 L 60.527344 210.949219 L 72.621094 210.949219 L 72.621094 222.882812 L 84.703125 222.882812 L 84.703125 234.8125 L 96.796875 234.8125 L 96.796875 246.742188 L 108.878906 246.742188 L 108.878906 258.6875 L 120.964844 258.6875 L 120.964844 270.609375 L 133.054688 270.609375 L 133.054688 282.550781 L 145.140625 282.550781 L 145.140625 294.480469 L 157.230469 294.480469 L 157.230469 306.410156 L 169.316406 306.410156 L 169.316406 318.347656 L 181.398438 318.347656 L 181.398438 330.273438 L 193.492188 330.273438 L 193.492188 318.347656 L 205.574219 318.347656 L 205.574219 306.410156 L 217.660156 306.410156 L 217.660156 294.480469 L 229.75 294.480469 L 229.75 282.550781 L 241.835938 282.550781 L 241.835938 270.609375 L 253.925781 270.609375 L 253.925781 258.6875 L 266.011719 258.6875 L 266.011719 246.742188 L 278.09375 246.742188 L 278.09375 234.8125 L 290.1875 234.8125 L 290.1875 222.882812 L 302.269531 222.882812 L 302.269531 210.949219 L 314.363281 210.949219 L 314.363281 199.019531 L 326.445312 199.019531 L 326.445312 187.074219 L 338.53125 187.074219 L 338.53125 175.144531 L 350.621094 175.144531 L 350.621094 163.222656 L 362.707031 163.222656 L 362.707031 151.28125 L 374.804688 151.28125 L 374.804688 127.414062 Z M 362.707031 127.414062 " fill-opacity="1" fill-rule="nonzero"/><path fill="#e26fa3" d="M 350.691406 139.257812 L 266.082031 139.257812 L 266.082031 163.464844 L 253.996094 163.464844 L 253.996094 187.664062 L 241.898438 187.664062 L 241.898438 211.871094 L 229.820312 211.871094 L 229.820312 236.078125 L 217.722656 236.078125 L 217.722656 260.285156 L 205.644531 260.285156 L 205.644531 284.492188 L 193.5625 284.492188 L 193.5625 308.691406 L 205.644531 308.691406 L 205.644531 296.589844 L 217.722656 296.589844 L 217.722656 284.492188 L 229.820312 284.492188 L 229.820312 272.386719 L 241.898438 272.386719 L 241.898438 260.285156 L 253.996094 260.285156 L 253.996094 248.179688 L 266.082031 248.179688 L 266.082031 236.078125 L 278.15625 236.078125 L 278.15625 223.980469 L 290.257812 223.980469 L 290.257812 211.871094 L 302.339844 211.871094 L 302.339844 199.773438 L 314.433594 199.773438 L 314.433594 187.664062 L 326.515625 187.664062 L 326.515625 175.566406 L 338.59375 175.566406 L 338.59375 163.464844 L 350.691406 163.464844 L 350.691406 151.359375 L 362.777344 151.359375 L 362.777344 139.257812 Z M 350.691406 139.257812 " fill-opacity="1" fill-rule="nonzero"/><path fill="#ffc5df" d="M 266.082031 115.050781 L 266.082031 90.84375 L 253.996094 90.84375 L 253.996094 66.644531 L 241.898438 66.644531 L 241.898438 54.539062 L 133.125 54.539062 L 133.125 66.644531 L 121.027344 66.644531 L 121.027344 90.84375 L 108.941406 90.84375 L 108.941406 115.050781 L 96.867188 115.050781 L 96.867188 139.257812 L 12.246094 139.257812 L 12.246094 151.359375 L 24.332031 151.359375 L 24.332031 163.464844 L 36.429688 163.464844 L 36.429688 175.566406 L 48.507812 175.566406 L 48.507812 187.664062 L 60.589844 187.664062 L 60.589844 199.773438 L 72.691406 199.773438 L 72.691406 211.871094 L 84.765625 211.871094 L 84.765625 223.980469 L 96.867188 223.980469 L 96.867188 236.078125 L 108.941406 236.078125 L 108.941406 248.179688 L 121.027344 248.179688 L 121.027344 260.285156 L 133.125 260.285156 L 133.125 272.386719 L 145.203125 272.386719 L 145.203125 284.492188 L 157.300781 284.492188 L 157.300781 296.589844 L 169.386719 296.589844 L 169.386719 308.691406 L 181.460938 308.691406 L 181.460938 284.492188 L 169.386719 284.492188 L 169.386719 260.285156 L 157.300781 260.285156 L 157.300781 236.078125 L 145.203125 236.078125 L 145.203125 211.871094 L 133.125 211.871094 L 133.125 187.664062 L 121.027344 187.664062 L 121.027344 163.464844 L 108.941406 163.464844 L 108.941406 139.257812 L 278.15625 139.257812 L 278.15625 115.050781 Z M 266.082031 115.050781 " fill-opacity="1" fill-rule="nonzero"/><path fill="#fefdfe" d="M 121.027344 54.539062 L 84.765625 54.539062 L 84.765625 66.644531 L 72.691406 66.644531 L 72.691406 78.746094 L 60.589844 78.746094 L 60.589844 90.84375 L 48.507812 90.84375 L 48.507812 102.953125 L 36.429688 102.953125 L 36.429688 115.050781 L 24.332031 115.050781 L 24.332031 127.152344 L 12.246094 127.152344 L 12.246094 139.257812 L 96.867188 139.257812 L 96.867188 115.050781 L 108.941406 115.050781 L 108.941406 90.84375 L 121.027344 90.84375 L 121.027344 66.644531 L 133.125 66.644531 L 133.125 54.539062 Z M 121.027344 54.539062 " fill-opacity="1" fill-rule="nonzero"/><g clip-path="url(#f8efcd9bd5)"><path fill="#3d3b52" d="M 362.910156 127.035156 L 362.910156 114.894531 L 350.847656 114.894531 L 350.847656 102.796875 L 338.746094 102.796875 L 338.746094 90.6875 L 326.671875 90.6875 L 326.671875 78.589844 L 314.585938 78.589844 L 314.585938 66.496094 L 302.496094 66.496094 L 302.496094 54.382812 L 290.410156 54.382812 L 290.410156 42.28125 L 84.640625 42.28125 L 84.640625 54.382812 L 72.527344 54.382812 L 72.527344 66.496094 L 60.4375 66.496094 L 60.4375 78.589844 L 48.351562 78.589844 L 48.351562 90.6875 L 36.273438 90.6875 L 36.273438 102.796875 L 24.183594 102.796875 L 24.183594 114.894531 L 12.089844 114.894531 L 12.089844 127.035156 L 0 127.035156 L 0 151.550781 L 12.089844 151.550781 L 12.089844 163.660156 L 24.183594 163.660156 L 24.183594 175.757812 L 36.273438 175.757812 L 36.273438 187.859375 L 48.351562 187.859375 L 48.351562 199.964844 L 60.4375 199.964844 L 60.4375 212.066406 L 72.527344 212.066406 L 72.527344 224.171875 L 84.640625 224.171875 L 84.640625 236.234375 L 96.742188 236.234375 L 96.742188 248.332031 L 108.816406 248.332031 L 108.816406 260.441406 L 120.902344 260.441406 L 120.902344 272.539062 L 133 272.539062 L 133 284.648438 L 145.078125 284.648438 L 145.078125 296.746094 L 157.175781 296.746094 L 157.175781 308.847656 L 169.261719 308.847656 L 169.261719 320.953125 L 181.335938 320.953125 L 181.335938 333.054688 L 193.738281 333.054688 L 193.738281 320.953125 L 205.792969 320.953125 L 205.792969 308.847656 L 217.875 308.847656 L 217.875 296.746094 L 229.976562 296.746094 L 229.976562 284.648438 L 242.050781 284.648438 L 242.050781 272.539062 L 254.152344 272.539062 L 254.152344 260.441406 L 266.234375 260.441406 L 266.234375 248.332031 L 278.3125 248.332031 L 278.3125 236.234375 L 290.410156 236.234375 L 290.410156 224.132812 L 302.496094 224.132812 L 302.496094 212.027344 L 314.585938 212.027344 L 314.585938 199.925781 L 326.671875 199.925781 L 326.671875 187.820312 L 338.746094 187.820312 L 338.746094 175.71875 L 350.847656 175.71875 L 350.847656 163.621094 L 362.910156 163.621094 L 362.910156 151.511719 L 375 151.511719 L 375 127.035156 Z M 362.597656 139.296875 L 362.597656 151.242188 L 350.507812 151.242188 L 350.507812 163.347656 L 338.4375 163.347656 L 338.4375 175.449219 L 326.363281 175.449219 L 326.363281 187.546875 L 314.277344 187.546875 L 314.277344 199.65625 L 302.1875 199.65625 L 302.1875 211.753906 L 290.101562 211.753906 L 290.101562 223.863281 L 278.003906 223.863281 L 278.003906 235.921875 L 265.925781 235.921875 L 265.925781 248.023438 L 253.84375 248.023438 L 253.84375 260.128906 L 241.742188 260.128906 L 241.742188 272.230469 L 229.667969 272.230469 L 229.667969 284.335938 L 217.566406 284.335938 L 217.566406 296.4375 L 205.484375 296.4375 L 205.484375 308.535156 L 193.40625 308.535156 L 193.40625 320.644531 L 181.617188 320.644531 L 181.617188 308.535156 L 169.539062 308.535156 L 169.539062 296.4375 L 157.457031 296.4375 L 157.457031 284.335938 L 145.355469 284.335938 L 145.355469 272.230469 L 133.273438 272.230469 L 133.273438 260.128906 L 121.179688 260.128906 L 121.179688 248.023438 L 109.097656 248.023438 L 109.097656 235.921875 L 97.042969 235.921875 L 97.042969 223.824219 L 84.921875 223.824219 L 84.921875 211.714844 L 72.835938 211.714844 L 72.835938 199.617188 L 60.746094 199.617188 L 60.746094 187.507812 L 48.660156 187.507812 L 48.660156 175.410156 L 36.585938 175.410156 L 36.585938 163.308594 L 24.484375 163.308594 L 24.484375 151.203125 L 12.402344 151.203125 L 12.402344 127.304688 L 24.484375 127.304688 L 24.484375 115.207031 L 36.585938 115.207031 L 36.585938 103.105469 L 48.660156 103.105469 L 48.660156 91 L 60.746094 91 L 60.746094 78.914062 L 72.835938 78.914062 L 72.835938 66.800781 L 84.921875 66.800781 L 84.921875 54.691406 L 290.101562 54.691406 L 290.101562 66.800781 L 302.1875 66.800781 L 302.1875 78.914062 L 314.277344 78.914062 L 314.277344 91 L 326.363281 91 L 326.363281 103.105469 L 338.4375 103.105469 L 338.4375 115.207031 L 350.507812 115.207031 L 350.507812 127.304688 L 362.589844 127.304688 Z M 362.597656 139.296875 " fill-opacity="1" fill-rule="nonzero"/></g></svg>