<svg xmlns="http://www.w3.org/2000/svg" xmlns:xlink="http://www.w3.org/1999/xlink" width="500" zoomAndPan="magnify" viewBox="0 0 375 374.999991" height="500" preserveAspectRatio="xMidYMid meet" version="1.0"><defs><clipPath id="9e06c47b4f"><path d="M 353 99 L 372.820312 99 L 372.820312 276 L 353 276 Z M 353 99 " clip-rule="nonzero"/></clipPath><clipPath id="3b756b52af"><path d="M 21 80.328125 L 354 80.328125 L 354 100 L 21 100 Z M 21 80.328125 " clip-rule="nonzero"/></clipPath><clipPath id="f45f708b53"><path d="M 2.320312 99 L 22 99 L 22 276 L 2.320312 276 Z M 2.320312 99 " clip-rule="nonzero"/></clipPath><clipPath id="21677441fc"><path d="M 21 275 L 354 275 L 354 294.828125 L 21 294.828125 Z M 21 275 " clip-rule="nonzero"/></clipPath></defs><path fill="#efd0d5" d="M 21.886719 138.824219 L 41.382812 138.824219 L 41.382812 158.328125 L 21.886719 158.328125 Z M 21.886719 138.824219 " fill-opacity="1" fill-rule="nonzero"/><path fill="#efd0d5" d="M 333.769531 138.824219 L 353.265625 138.824219 L 353.265625 158.328125 L 333.769531 158.328125 Z M 333.769531 138.824219 " fill-opacity="1" fill-rule="nonzero"/><path fill="#efd0d5" d="M 41.367188 158.328125 L 60.863281 158.328125 L 60.863281 177.832031 L 41.367188 177.832031 Z M 41.367188 158.328125 " fill-opacity="1" fill-rule="nonzero"/><path fill="#efd0d5" d="M 314.273438 158.328125 L 333.769531 158.328125 L 333.769531 177.832031 L 314.273438 177.832031 Z M 314.273438 158.328125 " fill-opacity="1" fill-rule="nonzero"/><path fill="#efd0d5" d="M 60.863281 177.832031 L 80.359375 177.832031 L 80.359375 197.335938 L 60.863281 197.335938 Z M 60.863281 177.832031 " fill-opacity="1" fill-rule="nonzero"/><path fill="#efd0d5" d="M 294.777344 177.832031 L 314.273438 177.832031 L 314.273438 197.335938 L 294.777344 197.335938 Z M 294.777344 177.832031 " fill-opacity="1" fill-rule="nonzero"/><path fill="#efd0d5" d="M 99.855469 197.320312 L 80.359375 197.320312 L 80.359375 216.824219 L 119.339844 216.824219 L 119.339844 197.320312 Z M 99.855469 197.320312 " fill-opacity="1" fill-rule="nonzero"/><path fill="#efd0d5" d="M 255.800781 197.320312 L 255.800781 216.824219 L 294.777344 216.824219 L 294.777344 197.320312 Z M 255.800781 197.320312 " fill-opacity="1" fill-rule="nonzero"/><path fill="#efd0d5" d="M 119.339844 216.824219 L 138.835938 216.824219 L 138.835938 236.328125 L 119.339844 236.328125 Z M 119.339844 216.824219 " fill-opacity="1" fill-rule="nonzero"/><path fill="#efd0d5" d="M 236.304688 216.824219 L 255.800781 216.824219 L 255.800781 236.328125 L 236.304688 236.328125 Z M 236.304688 216.824219 " fill-opacity="1" fill-rule="nonzero"/><path fill="#efd0d5" d="M 80.359375 236.328125 L 80.359375 255.832031 L 119.339844 255.832031 L 119.339844 236.328125 Z M 80.359375 236.328125 " fill-opacity="1" fill-rule="nonzero"/><path fill="#efd0d5" d="M 275.28125 255.832031 L 294.777344 255.832031 L 294.777344 236.328125 L 255.800781 236.328125 L 255.800781 255.832031 Z M 275.28125 255.832031 " fill-opacity="1" fill-rule="nonzero"/><path fill="#efd0d5" d="M 41.367188 255.832031 L 41.367188 275.335938 L 80.359375 275.335938 L 80.359375 255.832031 Z M 41.367188 255.832031 " fill-opacity="1" fill-rule="nonzero"/><path fill="#efd0d5" d="M 314.273438 275.335938 L 333.769531 275.335938 L 333.769531 255.832031 L 294.777344 255.832031 L 294.777344 275.335938 Z M 314.273438 275.335938 " fill-opacity="1" fill-rule="nonzero"/><path fill="#ddabaa" d="M 21.886719 119.320312 L 41.382812 119.320312 L 41.382812 138.824219 L 21.886719 138.824219 Z M 21.886719 119.320312 " fill-opacity="1" fill-rule="nonzero"/><path fill="#ddabaa" d="M 333.769531 119.320312 L 353.265625 119.320312 L 353.265625 138.824219 L 333.769531 138.824219 Z M 333.769531 119.320312 " fill-opacity="1" fill-rule="nonzero"/><path fill="#ddabaa" d="M 41.367188 138.824219 L 60.863281 138.824219 L 60.863281 158.328125 L 41.367188 158.328125 Z M 41.367188 138.824219 " fill-opacity="1" fill-rule="nonzero"/><path fill="#ddabaa" d="M 314.273438 138.824219 L 333.769531 138.824219 L 333.769531 158.328125 L 314.273438 158.328125 Z M 314.273438 138.824219 " fill-opacity="1" fill-rule="nonzero"/><path fill="#ddabaa" d="M 60.863281 158.328125 L 80.359375 158.328125 L 80.359375 177.832031 L 60.863281 177.832031 Z M 60.863281 158.328125 " fill-opacity="1" fill-rule="nonzero"/><path fill="#ddabaa" d="M 294.777344 158.328125 L 314.273438 158.328125 L 314.273438 177.832031 L 294.777344 177.832031 Z M 294.777344 158.328125 " fill-opacity="1" fill-rule="nonzero"/><path fill="#ddabaa" d="M 80.359375 177.832031 L 80.359375 197.320312 L 119.339844 197.320312 L 119.339844 177.832031 Z M 80.359375 177.832031 " fill-opacity="1" fill-rule="nonzero"/><path fill="#ddabaa" d="M 255.800781 177.832031 L 255.800781 197.320312 L 294.777344 197.320312 L 294.777344 177.832031 Z M 255.800781 177.832031 " fill-opacity="1" fill-rule="nonzero"/><path fill="#ddabaa" d="M 80.359375 216.824219 L 80.359375 236.328125 L 119.339844 236.328125 L 119.339844 216.824219 Z M 80.359375 216.824219 " fill-opacity="1" fill-rule="nonzero"/><path fill="#ddabaa" d="M 275.28125 216.824219 L 255.800781 216.824219 L 255.800781 236.328125 L 294.777344 236.328125 L 294.777344 216.824219 Z M 275.28125 216.824219 " fill-opacity="1" fill-rule="nonzero"/><path fill="#ddabaa" d="M 41.367188 236.328125 L 41.367188 255.832031 L 80.359375 255.832031 L 80.359375 236.328125 Z M 41.367188 236.328125 " fill-opacity="1" fill-rule="nonzero"/><path fill="#ddabaa" d="M 314.273438 236.328125 L 294.777344 236.328125 L 294.777344 255.832031 L 333.769531 255.832031 L 333.769531 236.328125 Z M 314.273438 236.328125 " fill-opacity="1" fill-rule="nonzero"/><path fill="#ddabaa" d="M 21.886719 255.832031 L 41.382812 255.832031 L 41.382812 275.335938 L 21.886719 275.335938 Z M 21.886719 255.832031 " fill-opacity="1" fill-rule="nonzero"/><path fill="#ddabaa" d="M 333.769531 255.832031 L 353.265625 255.832031 L 353.265625 275.335938 L 333.769531 275.335938 Z M 333.769531 255.832031 " fill-opacity="1" fill-rule="nonzero"/><path fill="#e82124" d="M 216.804688 177.832031 L 197.308594 177.832031 L 197.308594 197.320312 L 177.828125 197.320312 L 177.828125 177.832031 L 158.332031 177.832031 L 158.332031 197.320312 L 138.835938 197.320312 L 138.835938 216.824219 L 177.828125 216.824219 L 177.828125 236.328125 L 197.308594 236.328125 L 197.308594 216.824219 L 236.304688 216.824219 L 236.304688 177.832031 Z M 216.804688 177.832031 " fill-opacity="1" fill-rule="nonzero"/><path fill="#ffffff" d="M 333.769531 99.832031 L 21.886719 99.832031 L 21.886719 119.320312 L 41.367188 119.320312 L 41.367188 138.824219 L 60.863281 138.824219 L 60.863281 158.328125 L 80.359375 158.328125 L 80.359375 177.832031 L 138.835938 177.832031 L 138.835938 158.328125 L 177.828125 158.328125 L 177.828125 177.832031 L 197.308594 177.832031 L 197.308594 158.328125 L 236.304688 158.328125 L 236.304688 177.832031 L 294.777344 177.832031 L 294.777344 158.328125 L 314.273438 158.328125 L 314.273438 138.824219 L 333.769531 138.824219 L 333.769531 119.320312 L 353.265625 119.320312 L 353.265625 99.832031 Z M 333.769531 99.832031 " fill-opacity="1" fill-rule="nonzero"/><path fill="#ffffff" d="M 333.769531 177.832031 L 314.273438 177.832031 L 314.273438 197.320312 L 294.777344 197.320312 L 294.777344 236.328125 L 333.769531 236.328125 L 333.769531 255.832031 L 353.265625 255.832031 L 353.265625 158.328125 L 333.769531 158.328125 Z M 333.769531 177.832031 " fill-opacity="1" fill-rule="nonzero"/><path fill="#ffffff" d="M 138.835938 177.832031 L 158.332031 177.832031 L 158.332031 197.335938 L 138.835938 197.335938 Z M 138.835938 177.832031 " fill-opacity="1" fill-rule="nonzero"/><path fill="#ffffff" d="M 80.359375 216.824219 L 80.359375 197.320312 L 60.863281 197.320312 L 60.863281 177.832031 L 41.367188 177.832031 L 41.367188 158.328125 L 21.886719 158.328125 L 21.886719 255.832031 L 41.367188 255.832031 L 41.367188 236.328125 L 80.359375 236.328125 Z M 80.359375 216.824219 " fill-opacity="1" fill-rule="nonzero"/><path fill="#ffffff" d="M 255.800781 255.832031 L 255.800781 236.328125 L 197.308594 236.328125 L 197.308594 255.832031 L 177.828125 255.832031 L 177.828125 236.328125 L 119.339844 236.328125 L 119.339844 255.832031 L 80.359375 255.832031 L 80.359375 275.335938 L 294.777344 275.335938 L 294.777344 255.832031 Z M 255.800781 255.832031 " fill-opacity="1" fill-rule="nonzero"/><g clip-path="url(#9e06c47b4f)"><path fill="#020202" d="M 353.265625 99.832031 L 353.265625 275.335938 L 372.75 275.335938 L 372.75 99.832031 Z M 353.265625 99.832031 " fill-opacity="1" fill-rule="nonzero"/></g><g clip-path="url(#3b756b52af)"><path fill="#020202" d="M 60.863281 99.832031 L 353.265625 99.832031 L 353.265625 80.328125 L 21.886719 80.328125 L 21.886719 99.832031 Z M 60.863281 99.832031 " fill-opacity="1" fill-rule="nonzero"/></g><path fill="#020202" d="M 177.828125 177.832031 L 177.828125 158.328125 L 138.835938 158.328125 L 138.835938 177.832031 Z M 177.828125 177.832031 " fill-opacity="1" fill-rule="nonzero"/><path fill="#020202" d="M 236.304688 177.832031 L 236.304688 158.328125 L 197.308594 158.328125 L 197.308594 177.832031 Z M 236.304688 177.832031 " fill-opacity="1" fill-rule="nonzero"/><path fill="#020202" d="M 138.835938 177.832031 L 119.339844 177.832031 L 119.339844 216.824219 L 138.835938 216.824219 Z M 138.835938 177.832031 " fill-opacity="1" fill-rule="nonzero"/><path fill="#020202" d="M 236.304688 197.320312 L 236.304688 216.824219 L 255.800781 216.824219 L 255.800781 177.832031 L 236.304688 177.832031 Z M 236.304688 197.320312 " fill-opacity="1" fill-rule="nonzero"/><path fill="#020202" d="M 158.332031 216.824219 L 138.835938 216.824219 L 138.835938 236.328125 L 177.828125 236.328125 L 177.828125 216.824219 Z M 158.332031 216.824219 " fill-opacity="1" fill-rule="nonzero"/><path fill="#020202" d="M 197.308594 216.824219 L 197.308594 236.328125 L 236.304688 236.328125 L 236.304688 216.824219 Z M 197.308594 216.824219 " fill-opacity="1" fill-rule="nonzero"/><g clip-path="url(#f45f708b53)"><path fill="#020202" d="M 21.886719 236.328125 L 21.886719 99.832031 L 2.390625 99.832031 L 2.390625 275.335938 L 21.886719 275.335938 Z M 21.886719 236.328125 " fill-opacity="1" fill-rule="nonzero"/></g><g clip-path="url(#21677441fc)"><path fill="#020202" d="M 314.273438 275.335938 L 21.886719 275.335938 L 21.886719 294.828125 L 353.265625 294.828125 L 353.265625 275.335938 Z M 314.273438 275.335938 " fill-opacity="1" fill-rule="nonzero"/></g><path fill="#020202" d="M 177.828125 177.832031 L 197.324219 177.832031 L 197.324219 197.335938 L 177.828125 197.335938 Z M 177.828125 177.832031 " fill-opacity="1" fill-rule="nonzero"/><path fill="#020202" d="M 177.828125 236.328125 L 197.324219 236.328125 L 197.324219 255.832031 L 177.828125 255.832031 Z M 177.828125 236.328125 " fill-opacity="1" fill-rule="nonzero"/></svg>