<svg xmlns="http://www.w3.org/2000/svg" xmlns:xlink="http://www.w3.org/1999/xlink" width="500" zoomAndPan="magnify" viewBox="0 0 375 374.999991" height="500" preserveAspectRatio="xMidYMid meet" version="1.0"><defs><clipPath id="07fc8d55b6"><path d="M 0 41 L 364 41 L 364 345.816406 L 0 345.816406 Z M 0 41 " clip-rule="nonzero"/></clipPath><clipPath id="f6fb18cfcb"><path d="M 11 29.316406 L 375 29.316406 L 375 335 L 11 335 Z M 11 29.316406 " clip-rule="nonzero"/></clipPath><clipPath id="2225672e98"><path d="M 11 29.316406 L 375 29.316406 L 375 335 L 11 335 Z M 11 29.316406 " clip-rule="nonzero"/></clipPath></defs><g clip-path="url(#07fc8d55b6)"><path fill="#000000" d="M 351.527344 111.367188 L 351.527344 99.648438 L 339.8125 99.648438 L 339.8125 87.925781 L 281.230469 87.925781 L 281.230469 76.203125 L 269.515625 76.203125 L 269.515625 64.484375 L 257.796875 64.484375 L 257.796875 52.761719 L 246.082031 52.761719 L 246.082031 41.039062 L 117.203125 41.039062 L 117.203125 52.761719 L 105.484375 52.761719 L 105.484375 64.484375 L 93.769531 64.484375 L 93.769531 76.203125 L 82.054688 76.203125 L 82.054688 87.925781 L 23.472656 87.925781 L 23.472656 99.648438 L 11.753906 99.648438 L 11.753906 111.367188 L 0.0390625 111.367188 L 0.0390625 322.355469 L 11.753906 322.355469 L 11.753906 334.078125 L 23.472656 334.078125 L 23.472656 345.800781 L 339.8125 345.800781 L 339.8125 334.078125 L 351.527344 334.078125 L 351.527344 322.355469 L 363.246094 322.355469 L 363.246094 111.367188 Z M 351.527344 111.367188 " fill-opacity="0.3" fill-rule="nonzero"/></g><g clip-path="url(#f6fb18cfcb)"><path fill="#000000" d="M 363.246094 99.648438 L 363.246094 87.925781 L 351.527344 87.925781 L 351.527344 76.203125 L 292.945312 76.203125 L 292.945312 64.484375 L 281.230469 64.484375 L 281.230469 52.761719 L 269.515625 52.761719 L 269.515625 41.039062 L 257.796875 41.039062 L 257.796875 29.316406 L 128.917969 29.316406 L 128.917969 41.039062 L 117.203125 41.039062 L 117.203125 52.761719 L 105.484375 52.761719 L 105.484375 64.484375 L 93.769531 64.484375 L 93.769531 76.203125 L 35.1875 76.203125 L 35.1875 87.925781 L 23.472656 87.925781 L 23.472656 99.648438 L 11.753906 99.648438 L 11.753906 310.636719 L 23.472656 310.636719 L 23.472656 322.355469 L 35.1875 322.355469 L 35.1875 334.078125 L 351.527344 334.078125 L 351.527344 322.355469 L 363.246094 322.355469 L 363.246094 310.636719 L 374.960938 310.636719 L 374.960938 99.648438 Z M 363.246094 99.648438 " fill-opacity="1" fill-rule="nonzero"/></g><path fill="#929394" d="M 351.527344 99.648438 L 351.527344 87.925781 L 281.230469 87.925781 L 281.230469 64.484375 L 269.515625 64.484375 L 269.515625 52.761719 L 257.796875 52.761719 L 257.796875 41.039062 L 128.917969 41.039062 L 128.917969 52.761719 L 117.203125 52.761719 L 117.203125 64.484375 L 105.484375 64.484375 L 105.484375 87.925781 L 35.1875 87.925781 L 35.1875 99.648438 L 23.472656 99.648438 L 23.472656 310.636719 L 35.1875 310.636719 L 35.1875 322.355469 L 351.527344 322.355469 L 351.527344 310.636719 L 363.246094 310.636719 L 363.246094 99.648438 Z M 351.527344 99.648438 " fill-opacity="1" fill-rule="nonzero"/><path fill="#d1d3d4" d="M 281.230469 169.976562 L 281.230469 240.304688 L 269.515625 240.304688 L 269.515625 263.75 L 257.796875 263.75 L 257.796875 275.46875 L 234.367188 275.46875 L 234.367188 287.191406 L 152.351562 287.191406 L 152.351562 275.46875 L 128.917969 275.46875 L 128.917969 263.75 L 117.203125 263.75 L 117.203125 240.304688 L 105.484375 240.304688 L 105.484375 169.976562 L 117.203125 169.976562 L 117.203125 146.535156 L 128.917969 146.535156 L 128.917969 134.8125 L 152.351562 134.8125 L 152.351562 123.089844 L 234.367188 123.089844 L 234.367188 134.8125 L 257.796875 134.8125 L 257.796875 146.535156 L 269.515625 146.535156 L 269.515625 169.976562 Z M 187.5 87.925781 L 222.648438 87.925781 L 222.648438 64.484375 L 164.066406 64.484375 L 164.066406 87.925781 Z M 187.5 87.925781 " fill-opacity="1" fill-rule="nonzero"/><path fill="#333333" d="M 234.367188 169.976562 L 234.367188 158.253906 L 152.351562 158.253906 L 152.351562 169.976562 L 140.632812 169.976562 L 140.632812 240.304688 L 152.351562 240.304688 L 152.351562 252.027344 L 234.367188 252.027344 L 234.367188 240.304688 L 246.082031 240.304688 L 246.082031 169.976562 Z M 234.367188 169.976562 " fill-opacity="1" fill-rule="nonzero"/><g clip-path="url(#2225672e98)"><path fill="#000000" d="M 374.960938 99.648438 L 374.960938 310.636719 L 363.246094 310.636719 L 363.246094 99.648438 Z M 351.527344 322.355469 L 363.246094 322.355469 L 363.246094 310.636719 L 351.527344 310.636719 Z M 363.246094 99.648438 L 363.246094 87.925781 L 351.527344 87.925781 L 351.527344 99.648438 Z M 328.097656 322.355469 L 35.1875 322.355469 L 35.1875 334.078125 L 351.527344 334.078125 L 351.527344 322.355469 Z M 281.230469 181.699219 L 281.230469 240.304688 L 292.945312 240.304688 L 292.945312 169.976562 L 281.230469 169.976562 Z M 281.230469 87.925781 L 351.527344 87.925781 L 351.527344 76.203125 L 292.945312 76.203125 L 292.945312 64.484375 L 281.230469 64.484375 Z M 269.515625 252.027344 L 269.515625 263.75 L 281.230469 263.75 L 281.230469 240.304688 L 269.515625 240.304688 Z M 269.515625 169.976562 L 281.230469 169.976562 L 281.230469 146.535156 L 269.515625 146.535156 Z M 281.230469 64.484375 L 281.230469 52.761719 L 269.515625 52.761719 L 269.515625 64.484375 Z M 257.796875 275.46875 L 269.515625 275.46875 L 269.515625 263.75 L 257.796875 263.75 Z M 269.515625 146.535156 L 269.515625 134.8125 L 257.796875 134.8125 L 257.796875 146.535156 Z M 269.515625 52.761719 L 269.515625 41.039062 L 257.796875 41.039062 L 257.796875 52.761719 Z M 246.082031 181.699219 L 246.082031 240.304688 L 257.796875 240.304688 L 257.796875 169.976562 L 246.082031 169.976562 Z M 234.367188 275.46875 L 234.367188 287.191406 L 257.796875 287.191406 L 257.796875 275.46875 Z M 234.367188 252.027344 L 246.082031 252.027344 L 246.082031 240.304688 L 234.367188 240.304688 Z M 246.082031 169.976562 L 246.082031 158.253906 L 234.367188 158.253906 L 234.367188 169.976562 Z M 246.082031 134.8125 L 257.796875 134.8125 L 257.796875 123.089844 L 234.367188 123.089844 L 234.367188 134.8125 Z M 222.648438 87.925781 L 234.367188 87.925781 L 234.367188 64.484375 L 222.648438 64.484375 Z M 210.933594 287.191406 L 152.351562 287.191406 L 152.351562 298.914062 L 234.367188 298.914062 L 234.367188 287.191406 Z M 210.933594 252.027344 L 152.351562 252.027344 L 152.351562 263.75 L 234.367188 263.75 L 234.367188 252.027344 Z M 199.214844 87.925781 L 164.066406 87.925781 L 164.066406 99.648438 L 222.648438 99.648438 L 222.648438 87.925781 Z M 187.5 64.484375 L 222.648438 64.484375 L 222.648438 52.761719 L 164.066406 52.761719 L 164.066406 64.484375 Z M 175.785156 158.253906 L 234.367188 158.253906 L 234.367188 146.535156 L 152.351562 146.535156 L 152.351562 158.253906 Z M 175.785156 123.089844 L 234.367188 123.089844 L 234.367188 111.367188 L 152.351562 111.367188 L 152.351562 123.089844 Z M 164.066406 76.203125 L 164.066406 64.484375 L 152.351562 64.484375 L 152.351562 87.925781 L 164.066406 87.925781 Z M 140.632812 275.46875 L 128.917969 275.46875 L 128.917969 287.191406 L 152.351562 287.191406 L 152.351562 275.46875 Z M 140.632812 240.304688 L 140.632812 252.027344 L 152.351562 252.027344 L 152.351562 240.304688 Z M 152.351562 158.253906 L 140.632812 158.253906 L 140.632812 169.976562 L 152.351562 169.976562 Z M 152.351562 134.8125 L 152.351562 123.089844 L 128.917969 123.089844 L 128.917969 134.8125 Z M 152.351562 41.039062 L 257.796875 41.039062 L 257.796875 29.316406 L 128.917969 29.316406 L 128.917969 41.039062 Z M 140.632812 216.863281 L 140.632812 169.976562 L 128.917969 169.976562 L 128.917969 240.304688 L 140.632812 240.304688 Z M 117.203125 263.75 L 117.203125 275.46875 L 128.917969 275.46875 L 128.917969 263.75 Z M 128.917969 134.8125 L 117.203125 134.8125 L 117.203125 146.535156 L 128.917969 146.535156 Z M 128.917969 41.039062 L 117.203125 41.039062 L 117.203125 52.761719 L 128.917969 52.761719 Z M 117.203125 240.304688 L 105.484375 240.304688 L 105.484375 263.75 L 117.203125 263.75 Z M 117.203125 158.253906 L 117.203125 146.535156 L 105.484375 146.535156 L 105.484375 169.976562 L 117.203125 169.976562 Z M 117.203125 52.761719 L 105.484375 52.761719 L 105.484375 64.484375 L 117.203125 64.484375 Z M 105.484375 216.863281 L 105.484375 169.976562 L 93.769531 169.976562 L 93.769531 240.304688 L 105.484375 240.304688 Z M 58.621094 87.925781 L 105.484375 87.925781 L 105.484375 64.484375 L 93.769531 64.484375 L 93.769531 76.203125 L 35.1875 76.203125 L 35.1875 87.925781 Z M 23.472656 310.636719 L 23.472656 322.355469 L 35.1875 322.355469 L 35.1875 310.636719 Z M 35.1875 87.925781 L 23.472656 87.925781 L 23.472656 99.648438 L 35.1875 99.648438 Z M 23.472656 287.191406 L 23.472656 99.648438 L 11.753906 99.648438 L 11.753906 310.636719 L 23.472656 310.636719 Z M 23.472656 287.191406 " fill-opacity="1" fill-rule="nonzero"/></g><path fill="#000000" d="M 246.082031 169.976562 L 246.082031 240.304688 L 234.367188 240.304688 L 234.367188 252.027344 L 152.351562 252.027344 L 152.351562 240.304688 L 222.648438 240.304688 L 222.648438 228.585938 L 234.367188 228.585938 L 234.367188 181.699219 L 222.648438 181.699219 L 222.648438 169.976562 L 152.351562 169.976562 L 152.351562 158.253906 L 234.367188 158.253906 L 234.367188 169.976562 Z M 246.082031 169.976562 " fill-opacity="0.5" fill-rule="nonzero"/><path fill="#000000" d="M 222.648438 275.46875 L 222.648438 287.191406 L 152.351562 287.191406 L 152.351562 275.46875 Z M 164.066406 123.089844 L 152.351562 123.089844 L 152.351562 134.8125 L 164.066406 134.8125 Z M 140.632812 263.75 L 128.917969 263.75 L 128.917969 275.46875 L 152.351562 275.46875 L 152.351562 263.75 Z M 152.351562 146.535156 L 152.351562 134.8125 L 128.917969 134.8125 L 128.917969 146.535156 Z M 128.917969 240.304688 L 117.203125 240.304688 L 117.203125 263.75 L 128.917969 263.75 Z M 128.917969 158.253906 L 128.917969 146.535156 L 117.203125 146.535156 L 117.203125 169.976562 L 128.917969 169.976562 Z M 117.203125 216.863281 L 117.203125 169.976562 L 105.484375 169.976562 L 105.484375 240.304688 L 117.203125 240.304688 Z M 117.203125 216.863281 " fill-opacity="0.3" fill-rule="nonzero"/><path fill="#000000" d="M 128.917969 64.484375 L 117.203125 64.484375 L 117.203125 52.761719 L 128.917969 52.761719 Z M 117.203125 76.203125 L 117.203125 64.484375 L 105.484375 64.484375 L 105.484375 87.925781 L 117.203125 87.925781 Z M 35.1875 287.191406 L 35.1875 111.367188 L 46.902344 111.367188 L 46.902344 99.648438 L 105.484375 99.648438 L 105.484375 87.925781 L 35.1875 87.925781 L 35.1875 99.648438 L 23.472656 99.648438 L 23.472656 310.636719 L 35.1875 310.636719 Z M 128.917969 123.089844 L 117.203125 123.089844 L 117.203125 134.8125 L 128.917969 134.8125 Z M 140.632812 41.039062 L 128.917969 41.039062 L 128.917969 52.761719 L 140.632812 52.761719 Z M 140.632812 76.203125 L 140.632812 99.648438 L 152.351562 99.648438 L 152.351562 111.367188 L 210.933594 111.367188 L 210.933594 99.648438 L 164.066406 99.648438 L 164.066406 87.925781 L 152.351562 87.925781 L 152.351562 76.203125 Z M 246.082031 287.191406 L 234.367188 287.191406 L 234.367188 298.914062 L 246.082031 298.914062 Z M 117.203125 275.46875 L 117.203125 287.191406 L 128.917969 287.191406 L 128.917969 275.46875 Z M 222.648438 310.636719 L 222.648438 298.914062 L 152.351562 298.914062 L 152.351562 287.191406 L 128.917969 287.191406 L 128.917969 298.914062 L 140.632812 298.914062 L 140.632812 310.636719 L 35.1875 310.636719 L 35.1875 322.355469 L 339.8125 322.355469 L 339.8125 310.636719 Z M 105.484375 263.75 L 105.484375 275.46875 L 117.203125 275.46875 L 117.203125 263.75 Z M 105.484375 240.304688 L 93.769531 240.304688 L 93.769531 169.976562 L 82.054688 169.976562 L 82.054688 252.027344 L 93.769531 252.027344 L 93.769531 263.75 L 105.484375 263.75 Z M 117.203125 134.8125 L 105.484375 134.8125 L 105.484375 146.535156 L 117.203125 146.535156 Z M 105.484375 158.253906 L 105.484375 146.535156 L 93.769531 146.535156 L 93.769531 169.976562 L 105.484375 169.976562 Z M 105.484375 158.253906 " fill-opacity="0.3" fill-rule="nonzero"/><path fill="#ffffff" d="M 281.230469 169.976562 L 281.230469 240.304688 L 269.515625 240.304688 L 269.515625 169.976562 Z M 257.796875 252.027344 L 257.796875 263.75 L 269.515625 263.75 L 269.515625 240.304688 L 257.796875 240.304688 Z M 269.515625 146.535156 L 257.796875 146.535156 L 257.796875 169.976562 L 269.515625 169.976562 Z M 246.082031 134.8125 L 234.367188 134.8125 L 234.367188 146.535156 L 257.796875 146.535156 L 257.796875 134.8125 Z M 234.367188 263.75 L 234.367188 275.46875 L 257.796875 275.46875 L 257.796875 263.75 Z M 222.648438 287.191406 L 234.367188 287.191406 L 234.367188 275.46875 L 222.648438 275.46875 Z M 222.648438 123.089844 L 222.648438 134.8125 L 234.367188 134.8125 L 234.367188 123.089844 Z M 222.648438 87.925781 L 222.648438 64.484375 L 164.066406 64.484375 L 164.066406 76.203125 L 210.933594 76.203125 L 210.933594 87.925781 Z M 222.648438 87.925781 " fill-opacity="0.9" fill-rule="nonzero"/><path fill="#ffffff" d="M 363.246094 99.648438 L 363.246094 310.636719 L 351.527344 310.636719 L 351.527344 111.367188 L 339.8125 111.367188 L 339.8125 99.648438 L 281.230469 99.648438 L 281.230469 87.925781 L 351.527344 87.925781 L 351.527344 99.648438 Z M 339.8125 322.355469 L 351.527344 322.355469 L 351.527344 310.636719 L 339.8125 310.636719 Z M 281.230469 64.484375 L 269.515625 64.484375 L 269.515625 87.925781 L 281.230469 87.925781 Z M 257.796875 52.761719 L 257.796875 64.484375 L 269.515625 64.484375 L 269.515625 52.761719 Z M 246.082031 41.039062 L 246.082031 52.761719 L 257.796875 52.761719 L 257.796875 41.039062 Z M 246.082031 41.039062 " fill-opacity="0.4" fill-rule="nonzero"/><path fill="#929394" d="M 222.648438 181.699219 L 222.648438 205.140625 L 187.5 205.140625 L 187.5 181.699219 Z M 175.785156 228.585938 L 187.5 228.585938 L 187.5 216.863281 L 175.785156 216.863281 Z M 175.785156 228.585938 " fill-opacity="0.6" fill-rule="nonzero"/><path fill="#000000" d="M 175.785156 64.484375 L 164.066406 64.484375 L 164.066406 76.203125 L 175.785156 76.203125 Z M 187.5 76.203125 L 175.785156 76.203125 L 175.785156 87.925781 L 187.5 87.925781 Z M 199.214844 64.484375 L 187.5 64.484375 L 187.5 76.203125 L 199.214844 76.203125 Z M 210.933594 76.203125 L 199.214844 76.203125 L 199.214844 87.925781 L 210.933594 87.925781 Z M 222.648438 64.484375 L 210.933594 64.484375 L 210.933594 76.203125 L 222.648438 76.203125 Z M 222.648438 64.484375 " fill-opacity="0.2" fill-rule="nonzero"/></svg>