<svg xmlns="http://www.w3.org/2000/svg" xmlns:xlink="http://www.w3.org/1999/xlink" width="500" zoomAndPan="magnify" viewBox="0 0 375 374.999991" height="500" preserveAspectRatio="xMidYMid meet" version="1.0"><defs><clipPath id="98a18662c0"><path d="M 26.238281 33.496094 L 348.738281 33.496094 L 348.738281 341.746094 L 26.238281 341.746094 Z M 26.238281 33.496094 " clip-rule="nonzero"/></clipPath></defs><g clip-path="url(#98a18662c0)"><path fill="#000000" d="M 160.292969 341.738281 L 40.75 341.738281 L 40.75 327.230469 L 26.257812 327.230469 L 26.257812 265.609375 L 40.75 265.609375 L 40.75 251.101562 L 113.222656 251.101562 L 113.222656 62.515625 L 171.199219 62.515625 L 171.199219 48.007812 L 243.667969 48.007812 L 243.667969 33.5 L 348.71875 33.5 L 348.71875 298.21875 L 334.222656 298.21875 L 334.222656 312.722656 L 214.679688 312.722656 L 214.679688 298.21875 L 200.1875 298.21875 L 200.1875 236.597656 L 214.679688 236.597656 L 214.679688 222.089844 L 287.152344 222.089844 L 287.152344 153.148438 L 276.246094 153.148438 L 276.246094 167.65625 L 203.777344 167.65625 L 203.777344 182.164062 L 174.789062 182.164062 L 174.789062 327.230469 L 160.292969 327.230469 Z M 73.332031 309.128906 L 127.714844 309.128906 L 127.714844 294.621094 L 142.210938 294.621094 L 142.210938 283.710938 L 73.332031 283.710938 Z M 247.265625 280.117188 L 301.652344 280.117188 L 301.652344 265.609375 L 316.144531 265.609375 L 316.144531 254.695312 L 247.265625 254.695312 Z M 247.265625 280.117188 " fill-opacity="1" fill-rule="nonzero"/></g><path fill="#ceb7f1" d="M 317.933594 49.804688 L 259.957031 49.804688 L 259.957031 64.3125 L 187.488281 64.3125 L 187.488281 78.820312 L 129.511719 78.820312 L 129.511719 267.40625 L 57.039062 267.40625 L 57.039062 281.914062 L 42.546875 281.914062 L 42.546875 310.925781 L 57.039062 310.925781 L 57.039062 325.433594 L 144.003906 325.433594 L 144.003906 310.925781 L 158.5 310.925781 L 158.5 165.859375 L 187.488281 165.859375 L 187.488281 151.351562 L 259.957031 151.351562 L 259.957031 136.847656 L 303.441406 136.847656 L 303.441406 238.394531 L 230.96875 238.394531 L 230.96875 252.898438 L 216.476562 252.898438 L 216.476562 281.914062 L 230.96875 281.914062 L 230.96875 296.421875 L 317.933594 296.421875 L 317.933594 281.914062 L 332.429688 281.914062 L 332.429688 49.804688 Z M 245.464844 122.339844 L 187.488281 122.339844 L 187.488281 136.847656 L 158.5 136.847656 L 158.5 107.832031 L 187.488281 107.832031 L 187.488281 93.324219 L 259.957031 93.324219 L 259.957031 78.820312 L 303.441406 78.820312 L 303.441406 107.832031 L 259.957031 107.832031 L 259.957031 122.339844 Z M 245.464844 122.339844 " fill-opacity="1" fill-rule="nonzero"/></svg>