<svg xmlns="http://www.w3.org/2000/svg" xmlns:xlink="http://www.w3.org/1999/xlink" width="500" zoomAndPan="magnify" viewBox="0 0 375 374.999991" height="500" preserveAspectRatio="xMidYMid meet" version="1.0"><defs><clipPath id="7612d02211"><path d="M 57 28.828125 L 145 28.828125 L 145 58 L 57 58 Z M 57 28.828125 " clip-rule="nonzero"/></clipPath><clipPath id="82d6d79f8a"><path d="M 173 317 L 202 317 L 202 346.050781 L 173 346.050781 Z M 173 317 " clip-rule="nonzero"/></clipPath><clipPath id="712765276c"><path d="M 230 28.828125 L 318 28.828125 L 318 58 L 230 58 Z M 230 28.828125 " clip-rule="nonzero"/></clipPath><clipPath id="c9cf208c45"><path d="M 57 28.828125 L 145 28.828125 L 145 58 L 57 58 Z M 57 28.828125 " clip-rule="nonzero"/></clipPath></defs><g clip-path="url(#7612d02211)"><path fill="#1a1a1a" d="M 144.226562 57.675781 L 57.6875 57.675781 L 57.6875 28.835938 L 144.226562 28.835938 L 144.226562 57.675781 " fill-opacity="1" fill-rule="nonzero"/></g><path fill="#ff0000" d="M 317.304688 86.519531 L 317.304688 57.679688 L 230.769531 57.679688 L 230.769531 86.519531 L 201.921875 86.519531 L 201.921875 115.351562 L 173.078125 115.351562 L 173.078125 86.585938 L 173.074219 86.585938 L 173.074219 86.519531 L 144.226562 86.519531 L 144.226562 57.679688 L 57.6875 57.679688 L 57.6875 86.519531 L 28.84375 86.519531 L 28.84375 115.347656 L 28.847656 115.347656 L 28.847656 115.351562 L 28.84375 115.351562 L 28.84375 173.03125 L 57.6875 173.03125 L 57.6875 201.867188 L 86.535156 201.867188 L 86.535156 230.699219 L 118.929688 230.699219 L 118.929688 230.710938 L 115.382812 230.710938 L 115.382812 259.539062 L 146.488281 259.539062 L 144.226562 259.539062 L 144.226562 288.371094 L 173.078125 288.371094 L 173.078125 317.210938 L 201.921875 317.210938 L 201.921875 288.382812 L 201.917969 288.382812 L 201.917969 288.371094 L 230.769531 288.371094 L 230.769531 259.539062 L 259.613281 259.539062 L 259.613281 230.710938 L 256.066406 230.710938 L 256.066406 230.699219 L 288.460938 230.699219 L 288.460938 201.867188 L 282.617188 201.867188 L 282.617188 201.863281 L 317.304688 201.863281 L 317.304688 173.03125 L 346.152344 173.03125 L 346.152344 86.519531 L 317.304688 86.519531 " fill-opacity="1" fill-rule="nonzero"/><path fill="#1a1a1a" d="M 173.074219 115.347656 L 201.921875 115.347656 L 201.921875 86.511719 L 173.074219 86.511719 L 173.074219 115.347656 " fill-opacity="1" fill-rule="nonzero"/><path fill="#1a1a1a" d="M 201.921875 86.511719 L 230.769531 86.511719 L 230.769531 57.675781 L 201.921875 57.675781 L 201.921875 86.511719 " fill-opacity="1" fill-rule="nonzero"/><path fill="#1a1a1a" d="M 288.460938 230.699219 L 317.304688 230.699219 L 317.304688 201.863281 L 288.460938 201.863281 L 288.460938 230.699219 " fill-opacity="1" fill-rule="nonzero"/><path fill="#1a1a1a" d="M 317.304688 201.863281 L 346.152344 201.863281 L 346.152344 173.027344 L 317.304688 173.027344 L 317.304688 201.863281 " fill-opacity="1" fill-rule="nonzero"/><path fill="#1a1a1a" d="M 230.769531 288.378906 L 259.613281 288.378906 L 259.613281 259.539062 L 230.769531 259.539062 L 230.769531 288.378906 " fill-opacity="1" fill-rule="nonzero"/><path fill="#1a1a1a" d="M 259.613281 259.539062 L 288.460938 259.539062 L 288.460938 230.699219 L 259.613281 230.699219 L 259.613281 259.539062 " fill-opacity="1" fill-rule="nonzero"/><g clip-path="url(#82d6d79f8a)"><path fill="#1a1a1a" d="M 173.074219 346.050781 L 201.921875 346.050781 L 201.921875 317.214844 L 173.074219 317.214844 L 173.074219 346.050781 " fill-opacity="1" fill-rule="nonzero"/></g><path fill="#1a1a1a" d="M 201.921875 317.214844 L 230.769531 317.214844 L 230.769531 288.378906 L 201.921875 288.378906 L 201.921875 317.214844 " fill-opacity="1" fill-rule="nonzero"/><path fill="#1a1a1a" d="M 57.691406 201.867188 L 57.691406 230.703125 L 86.539062 230.703125 L 86.539062 201.867188 L 57.691406 201.867188 " fill-opacity="1" fill-rule="nonzero"/><path fill="#1a1a1a" d="M 28.847656 173.027344 L 28.847656 201.867188 L 57.691406 201.867188 L 57.691406 173.027344 L 28.847656 173.027344 " fill-opacity="1" fill-rule="nonzero"/><path fill="#1a1a1a" d="M 144.230469 259.542969 L 115.386719 259.542969 L 115.386719 288.382812 L 144.226562 288.382812 L 144.226562 317.210938 L 173.070312 317.210938 L 173.070312 288.375 L 144.230469 288.375 L 144.230469 259.542969 " fill-opacity="1" fill-rule="nonzero"/><path fill="#1a1a1a" d="M 86.539062 230.703125 L 86.539062 259.542969 L 115.386719 259.542969 L 115.386719 230.703125 L 86.539062 230.703125 " fill-opacity="1" fill-rule="nonzero"/><path fill="#1a1a1a" d="M 317.304688 57.675781 L 317.304688 86.511719 L 346.152344 86.511719 L 346.152344 57.675781 L 317.304688 57.675781 " fill-opacity="1" fill-rule="nonzero"/><path fill="#1a1a1a" d="M 144.226562 57.675781 L 144.226562 86.511719 L 173.074219 86.511719 L 173.074219 57.675781 L 144.226562 57.675781 " fill-opacity="1" fill-rule="nonzero"/><g clip-path="url(#712765276c)"><path fill="#1a1a1a" d="M 288.460938 28.835938 L 230.769531 28.835938 L 230.769531 57.675781 L 317.304688 57.675781 L 317.304688 28.835938 L 288.460938 28.835938 " fill-opacity="1" fill-rule="nonzero"/></g><g clip-path="url(#c9cf208c45)"><path fill="#1a1a1a" d="M 115.382812 28.835938 L 57.6875 28.835938 L 57.6875 57.675781 L 144.226562 57.675781 L 144.226562 28.835938 L 115.382812 28.835938 " fill-opacity="1" fill-rule="nonzero"/></g><path fill="#1a1a1a" d="M 346.152344 86.511719 L 346.152344 173.027344 L 375 173.027344 L 375 86.511719 L 346.152344 86.511719 " fill-opacity="1" fill-rule="nonzero"/><path fill="#1a1a1a" d="M 28.847656 144.191406 L 28.847656 86.515625 L 57.691406 86.515625 L 57.691406 57.675781 L 28.847656 57.675781 L 28.847656 86.511719 L 0 86.511719 L 0 173.027344 L 28.847656 173.027344 L 28.847656 144.191406 " fill-opacity="1" fill-rule="nonzero"/><path fill="#db2521" d="M 86.542969 86.515625 L 57.695312 86.515625 L 57.695312 57.675781 L 86.542969 57.675781 L 86.542969 86.515625 " fill-opacity="1" fill-rule="nonzero"/><path fill="#db2521" d="M 28.847656 86.511719 L 28.847656 173.027344 L 57.695312 173.027344 L 57.695312 86.511719 L 28.847656 86.511719 " fill-opacity="1" fill-rule="nonzero"/><path fill="#ffffff" d="M 274.035156 115.710938 L 245.1875 115.710938 L 245.1875 86.871094 L 274.035156 86.871094 L 274.035156 115.710938 " fill-opacity="1" fill-rule="nonzero"/><path fill="#ffffff" d="M 302.882812 115.710938 L 274.035156 115.710938 L 274.035156 86.871094 L 302.882812 86.871094 L 302.882812 115.710938 " fill-opacity="1" fill-rule="nonzero"/><path fill="#ffffff" d="M 302.882812 144.1875 L 274.035156 144.1875 L 274.035156 115.347656 L 302.882812 115.347656 L 302.882812 144.1875 " fill-opacity="1" fill-rule="nonzero"/><path fill="#d40601" d="M 173.078125 317.210938 L 201.921875 317.210938 L 201.921875 288.375 L 173.078125 288.375 L 173.078125 317.210938 " fill-opacity="1" fill-rule="nonzero"/><path fill="#db2521" d="M 288.457031 201.867188 L 317.304688 201.867188 L 317.304688 173.027344 L 288.457031 173.027344 L 288.457031 201.867188 " fill-opacity="1" fill-rule="nonzero"/><path fill="#db2521" d="M 230.765625 259.535156 L 201.925781 259.535156 L 201.925781 288.371094 L 230.773438 288.371094 L 230.773438 259.539062 L 259.609375 259.539062 L 259.609375 230.703125 L 230.765625 230.703125 L 230.765625 259.535156 " fill-opacity="1" fill-rule="nonzero"/><path fill="#db2521" d="M 259.609375 230.703125 L 288.457031 230.703125 L 288.457031 201.867188 L 259.609375 201.867188 L 259.609375 230.703125 " fill-opacity="1" fill-rule="nonzero"/><path fill="#db2521" d="M 173.070312 288.378906 L 173.070312 317.214844 L 201.917969 317.214844 L 201.917969 288.378906 L 173.070312 288.378906 " fill-opacity="1" fill-rule="nonzero"/><path fill="#db2521" d="M 57.691406 173.027344 L 57.691406 201.867188 L 86.535156 201.867188 L 86.535156 173.027344 L 57.691406 173.027344 " fill-opacity="1" fill-rule="nonzero"/><path fill="#db2521" d="M 144.230469 230.703125 L 115.382812 230.703125 L 115.382812 259.542969 L 144.222656 259.542969 L 144.222656 288.375 L 173.066406 288.375 L 173.066406 259.535156 L 144.230469 259.535156 L 144.230469 230.703125 " fill-opacity="1" fill-rule="nonzero"/><path fill="#db2521" d="M 86.535156 201.867188 L 86.535156 230.703125 L 115.382812 230.703125 L 115.382812 201.867188 L 86.535156 201.867188 " fill-opacity="1" fill-rule="nonzero"/></svg>